<?xml version="1.0" encoding="UTF-8" standalone="no"?>
<svg
   xmlns:dc="http://purl.org/dc/elements/1.1/"
   xmlns:cc="http://creativecommons.org/ns#"
   xmlns:rdf="http://www.w3.org/1999/02/22-rdf-syntax-ns#"
   xmlns:svg="http://www.w3.org/2000/svg"
   xmlns="http://www.w3.org/2000/svg"
   xmlns:sodipodi="http://sodipodi.sourceforge.net/DTD/sodipodi-0.dtd"
   xmlns:inkscape="http://www.inkscape.org/namespaces/inkscape"
   width="143.784mm"
   height="133.63477mm"
   viewBox="0 0 143.784 133.63477"
   version="1.1"
   id="svg8"
   inkscape:version="1.0.1 (3bc2e813f5, 2020-09-07)"
   sodipodi:docname="drawing.svg">
  <defs
     id="defs2" />
  <sodipodi:namedview
     id="base"
     pagecolor="#ffffff"
     bordercolor="#666666"
     borderopacity="1.0"
     inkscape:pageopacity="0.0"
     inkscape:pageshadow="2"
     inkscape:zoom="1.979899"
     inkscape:cx="305.48528"
     inkscape:cy="437.47944"
     inkscape:document-units="mm"
     inkscape:current-layer="layer1"
     inkscape:document-rotation="0"
     showgrid="false"
     inkscape:snap-page="true"
     inkscape:window-width="3840"
     inkscape:window-height="2080"
     inkscape:window-x="-11"
     inkscape:window-y="-11"
     inkscape:window-maximized="1" />
  <metadata
     id="metadata5">
    <rdf:RDF>
      <cc:Work
         rdf:about="">
        <dc:format>image/svg+xml</dc:format>
        <dc:type
           rdf:resource="http://purl.org/dc/dcmitype/StillImage" />
        <dc:title></dc:title>
      </cc:Work>
    </rdf:RDF>
  </metadata>
  <g
     inkscape:label="Layer 1"
     inkscape:groupmode="layer"
     id="layer1"
     transform="translate(-33.61602,-66.039703)">
    <g
       id="g1026"
       transform="translate(-170.92237,-142.85556)">
      <path
         style="fill:#5468FF;fill-opacity:1;stroke:none;stroke-width:7.9375;stroke-linecap:round;stroke-linejoin:round;stroke-miterlimit:0.4;stroke-dasharray:15.875, 15.875;stroke-dashoffset:0;stroke-opacity:1;paint-order:stroke fill markers"
         id="path985"
         sodipodi:type="arc"
         sodipodi:cx="275.71265"
         sodipodi:cy="-271.35577"
         sodipodi:rx="66.817383"
         sodipodi:ry="66.817383"
         sodipodi:start="0"
         sodipodi:end="3.1415927"
         sodipodi:open="true"
         sodipodi:arc-type="arc"
         transform="rotate(90)"
         d="m 342.53003,-271.35577 a 66.817383,66.817383 0 0 1 -33.40869,57.86555 66.817383,66.817383 0 0 1 -66.81739,0 66.817383,66.817383 0 0 1 -33.40869,-57.86555" />
      <path
         style="fill:#8593FF;fill-opacity:1;stroke:none;stroke-width:4.84759;stroke-linecap:round;stroke-linejoin:round;stroke-miterlimit:0.4;stroke-dasharray:9.69513, 9.69513;stroke-dashoffset:0;stroke-opacity:1;paint-order:stroke fill markers"
         id="path987"
         sodipodi:type="arc"
         sodipodi:cx="-275.74118"
         sodipodi:cy="284.17722"
         sodipodi:rx="40.806629"
         sodipodi:ry="40.806629"
         sodipodi:start="0"
         sodipodi:end="3.1415927"
         sodipodi:open="true"
         sodipodi:arc-type="arc"
         transform="rotate(-90)"
         d="m -234.93455,284.17722 a 40.806629,40.806629 0 0 1 -20.40332,35.33957 40.806629,40.806629 0 0 1 -40.80663,0 40.806629,40.806629 0 0 1 -20.40331,-35.33957" />
      <path
         style="color:#000000;font-style:normal;font-variant:normal;font-weight:normal;font-stretch:normal;font-size:medium;line-height:normal;font-family:sans-serif;font-variant-ligatures:normal;font-variant-position:normal;font-variant-caps:normal;font-variant-numeric:normal;font-variant-alternates:normal;font-variant-east-asian:normal;font-feature-settings:normal;font-variation-settings:normal;text-indent:0;text-align:start;text-decoration:none;text-decoration-line:none;text-decoration-style:solid;text-decoration-color:#000000;letter-spacing:normal;word-spacing:normal;text-transform:none;writing-mode:lr-tb;direction:ltr;text-orientation:mixed;dominant-baseline:auto;baseline-shift:baseline;text-anchor:start;white-space:normal;shape-padding:0;shape-margin:0;inline-size:0;clip-rule:nonzero;display:inline;overflow:visible;visibility:visible;opacity:1;isolation:auto;mix-blend-mode:normal;color-interpolation:sRGB;color-interpolation-filters:linearRGB;solid-color:#000000;solid-opacity:1;vector-effect:none;fill:#5468FF;fill-opacity:1;fill-rule:nonzero;stroke:none;stroke-width:10.6079;stroke-linecap:round;stroke-linejoin:round;stroke-miterlimit:0.4;stroke-dasharray:21.216, 21.216;stroke-dashoffset:0;stroke-opacity:1;paint-order:stroke fill markers;color-rendering:auto;image-rendering:auto;shape-rendering:auto;text-rendering:auto;enable-background:accumulate;stop-color:#000000;stop-opacity:1"
         d="m 305.75811,337.37535 c 2.18256,-1.30862 3.12809,-3.98293 2.25314,-6.37258 -1.00771,-2.75149 -4.0556,-4.16453 -6.80666,-3.15566 -6.04804,2.21555 -12.50856,3.35375 -18.9531,3.34462 -2.92904,-0.004 -5.30708,2.36654 -5.31172,5.29559 -0.004,2.92905 2.36654,5.30708 5.2956,5.31172 7.70005,0.0109 15.38516,-1.34144 22.61919,-3.99144 0.31412,-0.11528 0.61667,-0.26 0.90357,-0.43221 z m 18.20757,-10.51461 c 0.2636,-0.15262 0.51355,-0.32769 0.74711,-0.52318 5.91053,-4.94134 10.9217,-10.9195 14.76055,-17.59461 1.46051,-2.53895 0.58648,-5.78114 -1.95228,-7.24195 -2.53987,-1.46056 -5.78287,-0.58513 -7.24274,1.95514 -3.21279,5.58647 -7.42742,10.6127 -12.36918,14.74414 -2.24798,1.87849 -2.54735,5.22373 -0.66863,7.47151 1.65444,1.97882 4.49256,2.48059 6.72518,1.18896 z m 20.85939,-36.06029 c 1.31091,-0.79002 2.21657,-2.10789 2.48433,-3.61484 1.34365,-7.57594 1.35361,-15.373 0.012,-22.95797 -0.5097,-2.8853 -3.26235,-4.81076 -6.1475,-4.30012 -2.88408,0.5106 -4.80837,3.26226 -4.29829,6.14644 1.12209,6.34416 1.11369,12.90889 -0.0126,19.25968 -0.51074,2.88381 1.41251,5.63578 4.29617,6.14739 1.26406,0.22427 2.5666,-0.0175 3.66592,-0.68058 z m -7.31351,-40.88426 c 2.53796,-1.46281 3.40887,-4.70653 1.94569,-7.24426 -3.84073,-6.66093 -8.83672,-12.64501 -14.74637,-17.59437 -2.24514,-1.88118 -5.59014,-1.58634 -7.47157,0.65858 -1.88103,2.246 -1.58487,5.59166 0.66143,7.47233 4.93606,4.13398 9.14297,9.17163 12.36761,14.76384 1.46373,2.53647 4.7062,3.40666 7.24321,1.94388 z m -31.85778,-26.7112 c 1.08742,-0.62288 1.91885,-1.61103 2.34725,-2.78872 1.00138,-2.7525 -0.41792,-5.79565 -3.17026,-6.79744 -7.2289,-2.63055 -14.90261,-3.98962 -22.59943,-3.99264 -2.92913,-9.6e-4 -5.30452,2.37267 -5.30572,5.3018 -10e-4,2.92912 2.37267,5.3045 5.30179,5.3057 6.44797,0.003 12.9136,1.1467 18.97618,3.35284 1.46723,0.53405 3.09527,0.39447 4.45019,-0.38154 z"
         id="path989"
         sodipodi:nodetypes="ccccccccccccccccccccccscscccccscccccccc" />
    </g>
  </g>
</svg>
